{"version":"1.0","name":"Mount Fuji Theme (Action)","author":"PyPilot","tempo":140,"ticksPerBeat":24,"totalTicks":768,"notes":[{"id":"n1","note":69,"start":0,"duration":24,"velocity":12,"channel":0},{"id":"n2","note":73,"start":24,"duration":24,"velocity":12,"channel":0},{"id":"n3","note":76,"start":48,"duration":24,"velocity":14,"channel":0},{"id":"n4","note":73,"start":72,"duration":24,"velocity":11,"channel":0},{"id":"n5","note":81,"start":96,"duration":48,"velocity":15,"channel":0},{"id":"n6","note":78,"start":144,"duration":24,"velocity":12,"channel":0},{"id":"n7","note":76,"start":168,"duration":24,"velocity":12,"channel":0},{"id":"n8","note":73,"start":192,"duration":24,"velocity":11,"channel":0},{"id":"n9","note":76,"start":216,"duration":24,"velocity":12,"channel":0},{"id":"n10","note":78,"start":240,"duration":24,"velocity":13,"channel":0},{"id":"n11","note":81,"start":264,"duration":24,"velocity":14,"channel":0},{"id":"n12","note":85,"start":288,"duration":72,"velocity":15,"channel":0},{"id":"n13","note":69,"start":384,"duration":24,"velocity":12,"channel":0},{"id":"n14","note":73,"start":408,"duration":24,"velocity":12,"channel":0},{"id":"n15","note":76,"start":432,"duration":24,"velocity":14,"channel":0},{"id":"n16","note":78,"start":456,"duration":24,"velocity":13,"channel":0},{"id":"n17","note":81,"start":480,"duration":48,"velocity":15,"channel":0},{"id":"n18","note":83,"start":528,"duration":24,"velocity":13,"channel":0},{"id":"n19","note":85,"start":552,"duration":24,"velocity":14,"channel":0},{"id":"n20","note":88,"start":576,"duration":96,"velocity":15,"channel":0},{"id":"b1","note":57,"start":0,"duration":48,"velocity":10,"channel":1},{"id":"b2","note":45,"start":48,"duration":24,"velocity":12,"channel":1},{"id":"b3","note":57,"start":72,"duration":24,"velocity":9,"channel":1},{"id":"b4","note":57,"start":96,"duration":48,"velocity":11,"channel":1},{"id":"b5","note":45,"start":144,"duration":24,"velocity":12,"channel":1},{"id":"b6","note":57,"start":168,"duration":24,"velocity":9,"channel":1},{"id":"b7","note":61,"start":192,"duration":48,"velocity":10,"channel":1},{"id":"b8","note":49,"start":240,"duration":24,"velocity":12,"channel":1},{"id":"b9","note":61,"start":264,"duration":24,"velocity":9,"channel":1},{"id":"b10","note":64,"start":288,"duration":48,"velocity":11,"channel":1},{"id":"b11","note":52,"start":336,"duration":24,"velocity":12,"channel":1},{"id":"b12","note":64,"start":360,"duration":24,"velocity":9,"channel":1},{"id":"b13","note":57,"start":384,"duration":48,"velocity":10,"channel":1},{"id":"b14","note":45,"start":432,"duration":24,"velocity":12,"channel":1},{"id":"b15","note":57,"start":456,"duration":24,"velocity":9,"channel":1},{"id":"b16","note":61,"start":480,"duration":48,"velocity":10,"channel":1},{"id":"b17","note":49,"start":528,"duration":24,"velocity":12,"channel":1},{"id":"b18","note":61,"start":552,"duration":24,"velocity":9,"channel":1},{"id":"b19","note":64,"start":576,"duration":96,"velocity":11,"channel":1},{"id":"h1","note":88,"start":0,"duration":12,"velocity":8,"channel":2},{"id":"h2","note":88,"start":24,"duration":12,"velocity":7,"channel":2},{"id":"h3","note":88,"start":48,"duration":12,"velocity":9,"channel":2},{"id":"h4","note":88,"start":72,"duration":12,"velocity":7,"channel":2},{"id":"h5","note":88,"start":96,"duration":12,"velocity":8,"channel":2},{"id":"h6","note":88,"start":120,"duration":12,"velocity":7,"channel":2},{"id":"h7","note":88,"start":144,"duration":12,"velocity":9,"channel":2},{"id":"h8","note":88,"start":168,"duration":12,"velocity":7,"channel":2},{"id":"h9","note":88,"start":192,"duration":12,"velocity":8,"channel":2},{"id":"h10","note":88,"start":216,"duration":12,"velocity":7,"channel":2},{"id":"h11","note":88,"start":240,"duration":12,"velocity":9,"channel":2},{"id":"h12","note":88,"start":264,"duration":12,"velocity":7,"channel":2},{"id":"h13","note":88,"start":288,"duration":12,"velocity":8,"channel":2},{"id":"h14","note":88,"start":312,"duration":12,"velocity":7,"channel":2},{"id":"h15","note":88,"start":336,"duration":12,"velocity":9,"channel":2},{"id":"h16","note":88,"start":360,"duration":12,"velocity":7,"channel":2},{"id":"h17","note":88,"start":384,"duration":12,"velocity":8,"channel":2},{"id":"h18","note":88,"start":408,"duration":12,"velocity":7,"channel":2},{"id":"h19","note":88,"start":432,"duration":12,"velocity":9,"channel":2},{"id":"h20","note":88,"start":456,"duration":12,"velocity":7,"channel":2},{"id":"h21","note":88,"start":480,"duration":12,"velocity":8,"channel":2},{"id":"h22","note":88,"start":504,"duration":12,"velocity":7,"channel":2},{"id":"h23","note":88,"start":528,"duration":12,"velocity":9,"channel":2},{"id":"h24","note":88,"start":552,"duration":12,"velocity":7,"channel":2},{"id":"h25","note":88,"start":576,"duration":12,"velocity":8,"channel":2},{"id":"h26","note":88,"start":600,"duration":12,"velocity":7,"channel":2},{"id":"h27","note":88,"start":624,"duration":12,"velocity":9,"channel":2},{"id":"h28","note":88,"start":648,"duration":12,"velocity":7,"channel":2}],"noise":[{"id":"kick1","start":0,"duration":12,"period":4,"channels":4},{"id":"kick2","start":96,"duration":12,"period":4,"channels":4},{"id":"kick3","start":192,"duration":12,"period":4,"channels":4},{"id":"kick4","start":288,"duration":12,"period":4,"channels":4},{"id":"kick5","start":384,"duration":12,"period":4,"channels":4},{"id":"kick6","start":480,"duration":12,"period":4,"channels":4},{"id":"kick7","start":576,"duration":12,"period":4,"channels":4},{"id":"snare1","start":48,"duration":8,"period":10,"channels":4},{"id":"snare2","start":144,"duration":8,"period":10,"channels":4},{"id":"snare3","start":240,"duration":8,"period":10,"channels":4},{"id":"snare4","start":336,"duration":8,"period":10,"channels":4},{"id":"snare5","start":432,"duration":8,"period":10,"channels":4},{"id":"snare6","start":528,"duration":8,"period":10,"channels":4},{"id":"snare7","start":624,"duration":8,"period":10,"channels":4}],"loopStart":0,"loopEnd":768}