{
  "version": "1.0",
  "name": "Super Mario Bros Overworld Theme",
  "author": "Vectrex Studio",
  "tempo": 200,
  "ticksPerBeat": 48,
  "totalTicks": 1044,
  "notes": [
    {
      "id": "n1",
      "note": 76,
      "start": 0,
      "duration": 12,
      "velocity": 12,
      "channel": 0
    },
    {
      "id": "n2",
      "note": 76,
      "start": 24,
      "duration": 12,
      "velocity": 12,
      "channel": 0
    },
    {
      "id": "n3",
      "note": 76,
      "start": 48,
      "duration": 12,
      "velocity": 12,
      "channel": 0
    },
    {
      "id": "n4",
      "note": 72,
      "start": 60,
      "duration": 12,
      "velocity": 12,
      "channel": 0
    },
    {
      "id": "n5",
      "note": 76,
      "start": 72,
      "duration": 24,
      "velocity": 12,
      "channel": 0
    },
    {
      "id": "n6",
      "note": 79,
      "start": 96,
      "duration": 48,
      "velocity": 12,
      "channel": 0
    },
    {
      "id": "n7",
      "note": 67,
      "start": 192,
      "duration": 48,
      "velocity": 12,
      "channel": 0
    },
    {
      "id": "n8",
      "note": 72,
      "start": 288,
      "duration": 48,
      "velocity": 12,
      "channel": 0
    },
    {
      "id": "n9",
      "note": 67,
      "start": 384,
      "duration": 48,
      "velocity": 12,
      "channel": 0
    },
    {
      "id": "n10",
      "note": 64,
      "start": 480,
      "duration": 48,
      "velocity": 12,
      "channel": 0
    },
    {
      "id": "n11",
      "note": 69,
      "start": 552,
      "duration": 24,
      "velocity": 12,
      "channel": 0
    },
    {
      "id": "n12",
      "note": 71,
      "start": 576,
      "duration": 24,
      "velocity": 12,
      "channel": 0
    },
    {
      "id": "n13",
      "note": 70,
      "start": 600,
      "duration": 12,
      "velocity": 12,
      "channel": 0
    },
    {
      "id": "n14",
      "note": 69,
      "start": 612,
      "duration": 24,
      "velocity": 12,
      "channel": 0
    },
    {
      "id": "n15",
      "note": 67,
      "start": 636,
      "duration": 36,
      "velocity": 12,
      "channel": 0
    },
    {
      "id": "n16",
      "note": 76,
      "start": 672,
      "duration": 36,
      "velocity": 12,
      "channel": 0
    },
    {
      "id": "n17",
      "note": 79,
      "start": 708,
      "duration": 24,
      "velocity": 12,
      "channel": 0
    },
    {
      "id": "n18",
      "note": 81,
      "start": 732,
      "duration": 48,
      "velocity": 12,
      "channel": 0
    },
    {
      "id": "n19",
      "note": 77,
      "start": 804,
      "duration": 24,
      "velocity": 12,
      "channel": 0
    },
    {
      "id": "n20",
      "note": 79,
      "start": 828,
      "duration": 24,
      "velocity": 12,
      "channel": 0
    },
    {
      "id": "n21",
      "note": 76,
      "start": 876,
      "duration": 48,
      "velocity": 12,
      "channel": 0
    },
    {
      "id": "n22",
      "note": 72,
      "start": 948,
      "duration": 24,
      "velocity": 12,
      "channel": 0
    },
    {
      "id": "n23",
      "note": 74,
      "start": 972,
      "duration": 24,
      "velocity": 12,
      "channel": 0
    },
    {
      "id": "n24",
      "note": 71,
      "start": 996,
      "duration": 48,
      "velocity": 12,
      "channel": 0
    }
  ],
  "noise": [],
  "loopStart": 0,
  "loopEnd": 1044
}
